<svg width="0" height="0" class="hidden">
    <symbol xmlns="http://www.w3.org/2000/svg" viewBox="0 0 14 14" id="adress">
    <path d="M11.817 8.098a1.517 1.517 0 00-2.142 0l-.645.646A9.398 9.398 0 015.256 4.97l.645-.646c.59-.59.59-1.55 0-2.141L4.161.443c-.59-.59-1.55-.59-2.14 0L.627 1.835c-.797.797-.837 2.168-.112 3.86.63 1.468 1.782 3.083 3.244 4.545 1.462 1.462 3.076 2.614 4.545 3.244.804.344 1.535.516 2.167.516.698 0 1.274-.21 1.693-.628l1.392-1.392c.285-.286.443-.667.443-1.07 0-.405-.158-.786-.444-1.072l-1.74-1.74zm-.75 4.176c-.227.228-.927.308-2.15-.217-1.292-.553-2.734-1.589-4.06-2.915-1.326-1.326-2.36-2.767-2.914-4.059-.525-1.223-.445-1.923-.217-2.15L3.09 1.566l1.686 1.686-.808.809c-.366.365-.454.92-.22 1.379a10.95 10.95 0 004.81 4.81c.46.234 1.013.146 1.379-.22l.808-.808 1.686 1.686-1.365 1.365z" fill="#4F4F4F"></path>
    </symbol>
    <symbol xmlns="http://www.w3.org/2000/svg" viewBox="0 0 15 22" id="phone">
    <path d="M7.54 21.957l-.445-.5a41.583 41.583 0 01-3.202-4.217C1.7 13.943.46 11.052.206 8.647a7.96 7.96 0 01-.062-.957c0-4.264 3.318-7.733 7.396-7.733 4.077 0 7.395 3.469 7.397 7.732 0 .288-.02.597-.061.944-.248 2.406-1.487 5.3-3.683 8.602a41.567 41.567 0 01-3.208 4.222l-.445.5zm0-20.727c-3.407 0-6.179 2.898-6.179 6.46 0 .244.018.507.053.803l.002.01c.461 4.415 4.721 9.871 6.124 11.563 1.405-1.693 5.675-7.158 6.126-11.573l.001-.011c.036-.301.052-.553.052-.793 0-3.561-2.773-6.46-6.179-6.46zm0 11.662c-2.743 0-4.975-2.334-4.975-5.202s2.232-5.2 4.975-5.2c2.743 0 4.974 2.333 4.974 5.201 0 2.868-2.231 5.202-4.974 5.202zm0-9.13c-2.072 0-3.757 1.762-3.757 3.928 0 2.167 1.685 3.929 3.757 3.929 2.071 0 3.756-1.762 3.756-3.929 0-2.166-1.685-3.928-3.756-3.928z" fill="#4F4F4F"></path>
    </symbol>

    <symbol  xmlns="http://www.w3.org/2000/svg" viewBox="0 0 30 30" id="social_icon__twitter">
    <path d="M29.321 15c0 8.017-6.38 14.5-14.232 14.5C7.238 29.5.857 23.017.857 15S7.237.5 15.09.5C22.941.5 29.321 6.983 29.321 15z" stroke="#828282"></path>
    <path d="M13.169 21.818c-2.683 0-4.803-.482-5.817-1.321l-.02-.016-.017-.019a.864.864 0 01-.217-.891l.01-.027a.841.841 0 01.766-.542c.686-.012 1.287-.096 1.831-.26-.869-.415-1.472-1.134-1.831-2.175a.784.784 0 01.49-1.019 5.252 5.252 0 01-1.04-1.914l-.006-.021-.004-.022c-.068-.349.084-.707.362-.862a.763.763 0 01.37-.107 4.106 4.106 0 01-.296-.928c-.164-.869-.028-1.74.403-2.588l.1-.205a.548.548 0 01.89-.149l.181.187c1.435 1.546 2.72 2.28 4.941 2.781.1-.876.468-1.691 1.063-2.332a3.685 3.685 0 012.662-1.206h.006c.736 0 1.649.432 2.2.736.474-.159 1.045-.405 1.637-.666a.732.732 0 01.836.151.77.77 0 01.16.83 4.129 4.129 0 01-.147.362c.081.038.156.09.218.154.19.195.269.5.201.776l-.007.027c-.227.751-.663 1.363-1.239 1.747-.096 5.268-3.956 9.52-8.686 9.52zm-4.913-1.86c.956.555 2.777.892 4.913.892 2.053 0 3.99-.906 5.455-2.551 1.477-1.659 2.29-3.861 2.29-6.202v-.026c0-.212.114-.405.297-.505.37-.202.67-.545.866-.985a.547.547 0 01-.532-.223.581.581 0 01-.004-.676c.078-.11.148-.224.21-.342-.51.22-.996.418-1.418.55a.588.588 0 01-.463-.051c-.75-.43-1.45-.687-1.87-.688-1.555.024-2.82 1.393-2.82 3.052a.576.576 0 01-.202.441.543.543 0 01-.46.12c-2.563-.52-4.08-1.297-5.659-2.927a2.932 2.932 0 00-.183 1.672c.106.561.388 1.124.816 1.626a.582.582 0 01.053.68.545.545 0 01-.614.249 2.502 2.502 0 01-.518-.205c.33.736.896 1.417 1.61 1.92a.58.58 0 01.21.659.556.556 0 01-.566.38 2.443 2.443 0 01-.738-.163c.4.836 1.039 1.297 2.022 1.473a.576.576 0 01.165 1.068c-.838.456-1.755.701-2.86.762z" fill="#828282"></path>
    </symbol>
    <symbol  xmlns="http://www.w3.org/2000/svg" viewBox="0 0 30 30" id="social_icon__instagram">
    <path d="M29.143 15c0 8.017-6.38 14.5-14.232 14.5C7.059 29.5.679 23.017.679 15S7.059.5 14.91.5C22.762.5 29.143 6.983 29.143 15z" stroke="#828282"></path>
    <path d="M18.289 7.5h-6.757c-2.198 0-3.987 1.821-3.987 4.06v6.88c0 2.238 1.789 4.06 3.988 4.06h6.756c2.199 0 3.988-1.822 3.988-4.06v-6.88c0-2.239-1.79-4.06-3.988-4.06zm3.124 10.94c0 1.754-1.401 3.18-3.124 3.18h-6.757c-1.722 0-3.124-1.426-3.124-3.18v-6.88c0-1.754 1.402-3.18 3.125-3.18h6.756c1.723 0 3.124 1.426 3.124 3.18v6.88z" fill="#828282"></path>
    <path d="M14.91 10.899c-2.22 0-4.027 1.84-4.027 4.101 0 2.262 1.807 4.101 4.028 4.101 2.22 0 4.028-1.84 4.028-4.101 0-2.262-1.807-4.101-4.028-4.101zm0 7.323c-1.744 0-3.164-1.445-3.164-3.222s1.42-3.222 3.165-3.222 3.164 1.445 3.164 3.222-1.42 3.222-3.164 3.222zm4.125-8.78c-.656 0-1.19.544-1.19 1.212 0 .668.534 1.212 1.19 1.212.657 0 1.19-.544 1.19-1.212 0-.669-.533-1.212-1.19-1.212zm0 1.544a.33.33 0 01-.326-.332.33.33 0 01.326-.333c.18 0 .327.15.327.333a.33.33 0 01-.327.332z" fill="#828282"></path>
    </symbol>
    <symbol  xmlns="http://www.w3.org/2000/svg" viewBox="0 0 30 30" id="social_icon__facebook">
    <path d="M28.964 15c0 8.017-6.38 14.5-14.232 14.5C6.88 29.5.5 23.017.5 15S6.88.5 14.732.5C22.584.5 28.964 6.983 28.964 15z" stroke="#828282"></path>
    <path d="M15.727 22.472h-2.364a.706.706 0 01-.716-.695v-5.171h-1.38a.706.706 0 01-.715-.695v-2.216c0-.383.32-.695.716-.695h1.379v-1.11c0-1.1.356-2.036 1.03-2.707.677-.673 1.623-1.03 2.735-1.03l1.803.004c.394 0 .715.312.715.694v2.058a.706.706 0 01-.716.694H17c-.37 0-.464.073-.484.095-.034.036-.073.14-.073.426V13h1.68c.126 0 .249.03.354.088a.694.694 0 01.369.607l-.001 2.216a.706.706 0 01-.716.694h-1.686v5.172a.706.706 0 01-.716.695zm-2.215-.84h2.065V16.23c0-.256.215-.464.478-.464h1.924l.001-1.926h-1.925a.472.472 0 01-.478-.464v-1.252c0-.328.035-.701.29-.982.308-.338.794-.378 1.133-.378h1.064V8.996l-1.652-.003c-1.789 0-2.9 1.11-2.9 2.898v1.485a.472.472 0 01-.478.464h-1.617v1.926h1.617c.264 0 .478.208.478.464v5.403zm4.701-12.636z" fill="#828282"></path>
    </symbol>
    <symbol  xmlns="http://www.w3.org/2000/svg" viewBox="0 0 30 30" id="social_icon__youtube">
    <path d="M29.5 15c0 8.017-6.38 14.5-14.232 14.5-7.852 0-14.232-6.483-14.232-14.5S7.416.5 15.268.5C23.12.5 29.5 6.983 29.5 15z" stroke="#828282"></path>
    <g clip-path="url(#clip0)" fill="#828282">
    <path d="M17.535 14.326l-3.254-1.813a.583.583 0 00-.592.01.606.606 0 00-.293.524v3.595a.606.606 0 00.598.61.588.588 0 00.283-.074l3.255-1.782a.61.61 0 00.314-.534.61.61 0 00-.31-.536zM14.26 16.19v-2.687l2.433 1.355-2.433 1.332z"></path>
    <path d="M22.526 11.998l-.001-.007c-.013-.12-.137-1.195-.65-1.74-.592-.643-1.264-.721-1.587-.759a3.735 3.735 0 01-.073-.009l-.026-.002c-1.948-.145-4.89-.164-4.919-.164h-.005c-.03 0-2.97.02-4.936.164l-.026.002-.069.009c-.32.037-.984.115-1.578.781-.489.54-.63 1.591-.644 1.71l-.002.015c-.004.05-.108 1.246-.108 2.447v1.122c0 1.201.104 2.397.108 2.447v.008c.013.119.137 1.173.648 1.72.557.62 1.262.703 1.64.747.06.007.112.013.147.019l.034.005c1.125.109 4.65.162 4.8.164h.009c.03 0 2.97-.02 4.918-.163l.026-.003.083-.01c.317-.034.979-.105 1.565-.762.488-.54.63-1.591.644-1.71l.002-.015c.004-.05.108-1.246.108-2.447v-1.122c0-1.2-.104-2.397-.108-2.447zm-.756 3.57c0 1.11-.095 2.255-.104 2.36-.036.29-.185.954-.423 1.218-.367.41-.744.451-1.02.481a4.732 4.732 0 00-.091.01c-1.884.14-4.714.16-4.845.162-.146-.003-3.62-.057-4.71-.16a3.665 3.665 0 00-.18-.024c-.323-.037-.764-.089-1.104-.47l-.008-.008c-.234-.248-.379-.87-.415-1.205a31.264 31.264 0 01-.105-2.365v-1.122c0-1.11.095-2.254.104-2.36.044-.342.196-.966.424-1.219.378-.423.777-.47 1.04-.501l.07-.009c1.912-.14 4.762-.16 4.865-.16.102 0 2.952.02 4.846.16l.076.01c.271.031.681.079 1.057.487l.004.004c.233.248.378.88.415 1.223.006.075.104 1.236.104 2.365v1.122z"></path>
    </g>
    <defs>
    <clipPath id="clip0">
        <path fill="#fff" transform="translate(7.902 7.5)" d="M0 0h14.732v15H0z"></path>
    </clipPath>
    </defs>
    </symbol>
</svg>